<?xml version="1.0" encoding="UTF-8" standalone="no"?>
<!-- Created with Inkscape (http://www.inkscape.org/) -->

<svg
   xmlns:dc="http://purl.org/dc/elements/1.1/"
   xmlns:cc="http://creativecommons.org/ns#"
   xmlns:rdf="http://www.w3.org/1999/02/22-rdf-syntax-ns#"
   xmlns:svg="http://www.w3.org/2000/svg"
   xmlns="http://www.w3.org/2000/svg"
   xmlns:sodipodi="http://sodipodi.sourceforge.net/DTD/sodipodi-0.dtd"
   xmlns:inkscape="http://www.inkscape.org/namespaces/inkscape"
   width="210mm"
   height="297mm"
   viewBox="0 0 210 297"
   version="1.1"
   id="svg8"
   inkscape:version="0.92.3 (2405546, 2018-03-11)"
   sodipodi:docname="Logo.svg">
  <defs
     id="defs2">
    <inkscape:perspective
       sodipodi:type="inkscape:persp3d"
       inkscape:vp_x="-15.331039 : 179.97177 : 1"
       inkscape:vp_y="0 : 678.55871 : 0"
       inkscape:vp_z="151.77218 : 179.97177 : 1"
       inkscape:persp3d-origin="68.220573 : 146.38312 : 1"
       id="perspective98" />
  </defs>
  <sodipodi:namedview
     id="base"
     pagecolor="#ffffff"
     bordercolor="#666666"
     borderopacity="1.0"
     inkscape:pageopacity="0.0"
     inkscape:pageshadow="2"
     inkscape:zoom="0.35"
     inkscape:cx="400"
     inkscape:cy="560"
     inkscape:document-units="mm"
     inkscape:current-layer="layer1"
     showgrid="false"
     inkscape:window-width="1920"
     inkscape:window-height="1137"
     inkscape:window-x="-8"
     inkscape:window-y="-8"
     inkscape:window-maximized="1" />
  <metadata
     id="metadata5">
    <rdf:RDF>
      <cc:Work
         rdf:about="">
        <dc:format>image/svg+xml</dc:format>
        <dc:type
           rdf:resource="http://purl.org/dc/dcmitype/StillImage" />
        <dc:title />
      </cc:Work>
    </rdf:RDF>
  </metadata>
  <g
     inkscape:label="Layer 1"
     inkscape:groupmode="layer"
     id="layer1">
    <flowRoot
       xml:space="preserve"
       id="flowRoot10"
       style="font-style:normal;font-weight:normal;font-size:40px;line-height:1.25;font-family:sans-serif;letter-spacing:0px;word-spacing:0px;fill:#000000;fill-opacity:1;stroke:none"
       transform="scale(0.26458333)"><flowRegion
         id="flowRegion12"><rect
           id="rect14"
           width="211.42857"
           height="105.71429"
           x="137.14285"
           y="425.37683" /></flowRegion><flowPara
         id="flowPara16" /></flowRoot>    <rect
       style="fill:#aa0000;stroke-width:0.1944191"
       id="rect30"
       width="7.2184043"
       height="38.471859"
       x="1.5119035"
       y="59.803108" />
    <g
       sodipodi:type="inkscape:box3d"
       id="g100"
       style="fill:#d40000"
       inkscape:perspectiveID="#perspective98"
       inkscape:corner0="3.9606302 : 0.46784652 : 0 : 1"
       inkscape:corner7="2.4724411 : 0.17171754 : 0.25 : 1">
      <path
         sodipodi:type="inkscape:box3dside"
         id="path102"
         style="fill:#353564;fill-rule:evenodd;stroke:none;stroke-width:0.73481238;stroke-linejoin:round"
         inkscape:box3dsidetype="6"
         d="m 1.5119041,59.803112 v 40.507128 l 7.2093141,0.80211 V 62.548707 Z"
         points="1.5119041,100.31024 8.7212182,101.11235 8.7212182,62.548707 1.5119041,59.803112 " />
      <path
         sodipodi:type="inkscape:box3dside"
         id="path112"
         style="fill:#e9e9ff;fill-rule:evenodd;stroke:none;stroke-width:0.73481238;stroke-linejoin:round"
         inkscape:box3dsidetype="11"
         d="M 8.7212182,62.548707 18.337034,40.768419 v 53.980946 l -9.6158158,6.362985 z"
         points="18.337034,40.768419 18.337034,94.749365 8.7212182,101.11235 8.7212182,62.548707 " />
      <path
         sodipodi:type="inkscape:box3dside"
         id="path104"
         style="fill:#4d4d9f;fill-rule:evenodd;stroke:none;stroke-width:0.73481238;stroke-linejoin:round"
         inkscape:box3dsidetype="5"
         d="M 1.5119041,59.803112 8.7303087,35.278059 18.337034,40.768419 8.7212182,62.548707 Z"
         points="8.7303087,35.278059 18.337034,40.768419 8.7212182,62.548707 1.5119041,59.803112 " />
      <path
         sodipodi:type="inkscape:box3dside"
         id="path110"
         style="fill:#afafde;fill-rule:evenodd;stroke:none;stroke-width:0.73481238;stroke-linejoin:round"
         inkscape:box3dsidetype="13"
         d="m 1.5119041,100.31024 7.2184046,-7.164852 9.6067253,1.603977 -9.6158158,6.362985 z"
         points="8.7303087,93.145388 18.337034,94.749365 8.7212182,101.11235 1.5119041,100.31024 " />
      <path
         sodipodi:type="inkscape:box3dside"
         id="path108"
         style="fill:#d7d7ff;fill-rule:evenodd;stroke:none;stroke-width:0.73481238;stroke-linejoin:round"
         inkscape:box3dsidetype="14"
         d="m 8.7303087,35.278059 v 57.867329 l 9.6067253,1.603977 V 40.768419 Z"
         points="8.7303087,93.145388 18.337034,94.749365 18.337034,40.768419 8.7303087,35.278059 " />
      <path
         sodipodi:type="inkscape:box3dside"
         id="path106"
         style="fill:#8686bf;fill-rule:evenodd;stroke:none;stroke-width:0.73481238;stroke-linejoin:round"
         inkscape:box3dsidetype="3"
         d="M 1.5119041,59.803112 8.7303087,35.278059 v 57.867329 l -7.2184046,7.164852 z"
         points="8.7303087,35.278059 8.7303087,93.145388 1.5119041,100.31024 1.5119041,59.803112 " />
    </g>
    <g
       sodipodi:type="inkscape:box3d"
       id="g128"
       style="fill:#d40000"
       inkscape:perspectiveID="#perspective98"
       inkscape:corner0="2.4737534 : 0.13097836 : 0 : 1"
       inkscape:corner7="0.71478569 : 0.11633582 : 0.25 : 1">
      <path
         sodipodi:type="inkscape:box3dside"
         id="path130"
         style="fill:#353564;fill-rule:evenodd;stroke:none;stroke-width:0.73481238;stroke-linejoin:round"
         inkscape:box3dsidetype="6"
         d="m 8.7212189,101.11235 v 2.86026 l 9.6039501,0.87651 v -2.66823 z"
         points="8.7212189,103.97261 18.325169,104.84912 18.325169,102.18089 8.7212189,101.11235 " />
      <path
         sodipodi:type="inkscape:box3dside"
         id="path140"
         style="fill:#e9e9ff;fill-rule:evenodd;stroke:none;stroke-width:0.73481238;stroke-linejoin:round"
         inkscape:box3dsidetype="11"
         d="M 18.325169,102.18089 48.455775,88.888853 v 5.05695 L 18.325169,104.84912 Z"
         points="48.455775,88.888853 48.455775,93.945803 18.325169,104.84912 18.325169,102.18089 " />
      <path
         sodipodi:type="inkscape:box3dside"
         id="path132"
         style="fill:#4d4d9f;fill-rule:evenodd;stroke:none;stroke-width:0.73481238;stroke-linejoin:round"
         inkscape:box3dsidetype="5"
         d="M 8.7212189,101.11235 33.393192,84.786389 48.455775,88.888853 18.325169,102.18089 Z"
         points="33.393192,84.786389 48.455775,88.888853 18.325169,102.18089 8.7212189,101.11235 " />
      <path
         sodipodi:type="inkscape:box3dside"
         id="path138"
         style="fill:#afafde;fill-rule:evenodd;stroke:none;stroke-width:0.73481238;stroke-linejoin:round"
         inkscape:box3dsidetype="13"
         d="M 8.7212189,103.97261 33.393192,90.580596 48.455775,93.945803 18.325169,104.84912 Z"
         points="33.393192,90.580596 48.455775,93.945803 18.325169,104.84912 8.7212189,103.97261 " />
      <path
         sodipodi:type="inkscape:box3dside"
         id="path136"
         style="fill:#d7d7ff;fill-rule:evenodd;stroke:none;stroke-width:0.73481238;stroke-linejoin:round"
         inkscape:box3dsidetype="14"
         d="m 33.393192,84.786389 v 5.794207 l 15.062583,3.365207 v -5.05695 z"
         points="33.393192,90.580596 48.455775,93.945803 48.455775,88.888853 33.393192,84.786389 " />
      <path
         sodipodi:type="inkscape:box3dside"
         id="path134"
         style="fill:#8686bf;fill-rule:evenodd;stroke:none;stroke-width:0.73481238;stroke-linejoin:round"
         inkscape:box3dsidetype="3"
         d="M 8.7212189,101.11235 33.393192,84.786389 v 5.794207 L 8.7212189,103.97261 Z"
         points="33.393192,84.786389 33.393192,90.580596 8.7212189,103.97261 8.7212189,101.11235 " />
    </g>
    <g
       sodipodi:type="inkscape:box3d"
       id="g146"
       style="fill:#d40000"
       inkscape:perspectiveID="#perspective98"
       inkscape:corner0="0.2513301 : 0.19067407 : 0 : 1"
       inkscape:corner7="0.021306184 : 0.088126528 : 0.25 : 1">
      <path
         sodipodi:type="inkscape:box3dside"
         id="path148"
         style="fill:#353564;fill-rule:evenodd;stroke:none;stroke-width:0.73481238;stroke-linejoin:round"
         inkscape:box3dsidetype="6"
         d="m 51.439203,40.473777 v 55.608448 l 16.707348,3.487909 V 53.221549 Z"
         points="51.439203,96.082225 68.146551,99.570134 68.146551,53.221549 51.439203,40.473777 " />
      <path
         sodipodi:type="inkscape:box3dside"
         id="path158"
         style="fill:#e9e9ff;fill-rule:evenodd;stroke:none;stroke-width:0.73481238;stroke-linejoin:round"
         inkscape:box3dsidetype="11"
         d="M 68.146551,53.221549 83.250578,41.67668 v 54.734671 l -15.104027,3.158783 z"
         points="83.250578,41.67668 83.250578,96.411351 68.146551,99.570134 68.146551,53.221549 " />
      <path
         sodipodi:type="inkscape:box3dside"
         id="path150"
         style="fill:#4d4d9f;fill-rule:evenodd;stroke:none;stroke-width:0.73481238;stroke-linejoin:round"
         inkscape:box3dsidetype="5"
         d="M 51.439203,40.473777 66.477546,23.231781 83.250578,41.67668 68.146551,53.221549 Z"
         points="66.477546,23.231781 83.250578,41.67668 68.146551,53.221549 51.439203,40.473777 " />
      <path
         sodipodi:type="inkscape:box3dside"
         id="path156"
         style="fill:#afafde;fill-rule:evenodd;stroke:none;stroke-width:0.73481238;stroke-linejoin:round"
         inkscape:box3dsidetype="13"
         d="m 51.439203,96.082225 15.038343,-4.717569 16.773032,5.046695 -15.104027,3.158783 z"
         points="66.477546,91.364656 83.250578,96.411351 68.146551,99.570134 51.439203,96.082225 " />
      <path
         sodipodi:type="inkscape:box3dside"
         id="path154"
         style="fill:#d7d7ff;fill-rule:evenodd;stroke:none;stroke-width:0.73481238;stroke-linejoin:round"
         inkscape:box3dsidetype="14"
         d="m 66.477546,23.231781 v 68.132875 l 16.773032,5.046695 V 41.67668 Z"
         points="66.477546,91.364656 83.250578,96.411351 83.250578,41.67668 66.477546,23.231781 " />
      <path
         sodipodi:type="inkscape:box3dside"
         id="path152"
         style="fill:#8686bf;fill-rule:evenodd;stroke:none;stroke-width:0.73481238;stroke-linejoin:round"
         inkscape:box3dsidetype="3"
         d="M 51.439203,40.473777 66.477546,23.231781 v 68.132875 l -15.038343,4.717569 z"
         points="66.477546,23.231781 66.477546,91.364656 51.439203,96.082225 51.439203,40.473777 " />
    </g>
    <g
       sodipodi:type="inkscape:box3d"
       id="g160"
       style="fill:#d40000"
       inkscape:perspectiveID="#perspective98"
       inkscape:corner0="0.021306184 : 0.19067407 : 0 : 1"
       inkscape:corner7="-0.20629919 : 0.16683544 : 0.25 : 1">
      <path
         sodipodi:type="inkscape:box3dside"
         id="path162"
         style="fill:#353564;fill-rule:evenodd;stroke:none;stroke-width:0.73481238;stroke-linejoin:round"
         inkscape:box3dsidetype="6"
         d="M 66.477546,23.231781 V 39.070234 L 83.250578,54.40053 V 41.67668 Z"
         points="66.477546,39.070234 83.250578,54.40053 83.250578,41.67668 66.477546,23.231781 " />
      <path
         sodipodi:type="inkscape:box3dside"
         id="path172"
         style="fill:#e9e9ff;fill-rule:evenodd;stroke:none;stroke-width:0.73481238;stroke-linejoin:round"
         inkscape:box3dsidetype="11"
         d="M 83.250578,41.67668 104.74879,25.244366 V 40.742974 L 83.250578,54.40053 Z"
         points="104.74879,25.244366 104.74879,40.742974 83.250578,54.40053 83.250578,41.67668 " />
      <path
         sodipodi:type="inkscape:box3dside"
         id="path164"
         style="fill:#4d4d9f;fill-rule:evenodd;stroke:none;stroke-width:0.73481238;stroke-linejoin:round"
         inkscape:box3dsidetype="5"
         d="M 66.477546,23.231781 89.93736,-3.6657305 104.74879,25.244366 83.250578,41.67668 Z"
         points="89.93736,-3.6657305 104.74879,25.244366 83.250578,41.67668 66.477546,23.231781 " />
      <path
         sodipodi:type="inkscape:box3dside"
         id="path170"
         style="fill:#afafde;fill-rule:evenodd;stroke:none;stroke-width:0.73481238;stroke-linejoin:round"
         inkscape:box3dsidetype="13"
         d="M 66.477546,39.070234 89.93736,16.714631 104.74879,40.742974 83.250578,54.40053 Z"
         points="89.93736,16.714631 104.74879,40.742974 83.250578,54.40053 66.477546,39.070234 " />
      <path
         sodipodi:type="inkscape:box3dside"
         id="path168"
         style="fill:#d7d7ff;fill-rule:evenodd;stroke:none;stroke-width:0.73481238;stroke-linejoin:round"
         inkscape:box3dsidetype="14"
         d="M 89.93736,-3.6657305 V 16.714631 l 14.81143,24.028343 V 25.244366 Z"
         points="89.93736,16.714631 104.74879,40.742974 104.74879,25.244366 89.93736,-3.6657305 " />
      <path
         sodipodi:type="inkscape:box3dside"
         id="path166"
         style="fill:#8686bf;fill-rule:evenodd;stroke:none;stroke-width:0.73481238;stroke-linejoin:round"
         inkscape:box3dsidetype="3"
         d="M 66.477546,23.231781 89.93736,-3.6657305 V 16.714631 L 66.477546,39.070234 Z"
         points="89.93736,-3.6657305 89.93736,16.714631 66.477546,39.070234 66.477546,23.231781 " />
    </g>
    <g
       sodipodi:type="inkscape:box3d"
       id="g174"
       style="fill:#d40000"
       inkscape:perspectiveID="#perspective98"
       inkscape:corner0="0.021306184 : 0.10228775 : 0 : 1"
       inkscape:corner7="-0.31912921 : 0.088126528 : 0.25 : 1">
      <path
         sodipodi:type="inkscape:box3dside"
         id="path176"
         style="fill:#353564;fill-rule:evenodd;stroke:none;stroke-width:0.73481238;stroke-linejoin:round"
         inkscape:box3dsidetype="6"
         d="m 66.477546,81.9559 v 9.408756 l 16.773032,5.046695 V 88.85281 Z"
         points="66.477546,91.364656 83.250578,96.411351 83.250578,88.85281 66.477546,81.9559 " />
      <path
         sodipodi:type="inkscape:box3dside"
         id="path186"
         style="fill:#e9e9ff;fill-rule:evenodd;stroke:none;stroke-width:0.73481238;stroke-linejoin:round"
         inkscape:box3dsidetype="11"
         d="M 83.250578,88.85281 119.30356,78.548574 v 10.322829 l -36.052982,7.539948 z"
         points="119.30356,78.548574 119.30356,88.871403 83.250578,96.411351 83.250578,88.85281 " />
      <path
         sodipodi:type="inkscape:box3dside"
         id="path178"
         style="fill:#4d4d9f;fill-rule:evenodd;stroke:none;stroke-width:0.73481238;stroke-linejoin:round"
         inkscape:box3dsidetype="5"
         d="M 66.477546,81.9559 107.38184,64.419733 119.30356,78.548574 83.250578,88.85281 Z"
         points="107.38184,64.419733 119.30356,78.548574 83.250578,88.85281 66.477546,81.9559 " />
      <path
         sodipodi:type="inkscape:box3dside"
         id="path184"
         style="fill:#afafde;fill-rule:evenodd;stroke:none;stroke-width:0.73481238;stroke-linejoin:round"
         inkscape:box3dsidetype="13"
         d="m 66.477546,91.364656 40.904294,-12.83179 11.92172,10.338537 -36.052982,7.539948 z"
         points="107.38184,78.532866 119.30356,88.871403 83.250578,96.411351 66.477546,91.364656 " />
      <path
         sodipodi:type="inkscape:box3dside"
         id="path182"
         style="fill:#d7d7ff;fill-rule:evenodd;stroke:none;stroke-width:0.73481238;stroke-linejoin:round"
         inkscape:box3dsidetype="14"
         d="m 107.38184,64.419733 v 14.113133 l 11.92172,10.338537 V 78.548574 Z"
         points="107.38184,78.532866 119.30356,88.871403 119.30356,78.548574 107.38184,64.419733 " />
      <path
         sodipodi:type="inkscape:box3dside"
         id="path180"
         style="fill:#8686bf;fill-rule:evenodd;stroke:none;stroke-width:0.73481238;stroke-linejoin:round"
         inkscape:box3dsidetype="3"
         d="M 66.477546,81.9559 107.38184,64.419733 v 14.113133 l -40.904294,12.83179 z"
         points="107.38184,64.419733 107.38184,78.532866 66.477546,91.364656 66.477546,81.9559 " />
    </g>
  </g>
</svg>
